<svg id="Capa_1" enable-background="new 0 0 512.28 512.28" height="256" viewBox="0 0 512.28 512.28" width="256" xmlns="http://www.w3.org/2000/svg"><g><path d="m331.14 92.695v-77.695h-150v77.695c0 11.855 4.71 23.225 13.093 31.608l40.695 40.695-40.721 40.71c-8.366 8.364-13.066 19.709-13.066 31.539v2.753c0 16.569 13.431 30 30 30h90c16.569 0 30-13.431 30-30v-2.695c0-11.855-4.71-23.225-13.093-31.608l-40.695-40.695 40.68-40.669c8.392-8.39 13.107-19.771 13.107-31.638z" fill="#f9f4f3"/><path d="m256.14 270h45c16.569 0 30-13.433 30-30v-2.695c0-11.856-4.709-23.225-13.092-31.609l-40.695-40.693 40.681-40.67c8.392-8.39 13.107-19.77 13.107-31.637v-77.696h-75v255z" fill="#f0e6e1"/><g><path d="m331.14 315h-150v-75h150z" fill="#ffdf40"/></g><path d="m256.14 240h75v75h-75z" fill="#ffbe40"/><g id="_x37_3-expired_1_"><g><path d="m184.128 362h-30c0 11.515 0 157.508 0 150h30v-60c24.814 0 45-20.186 45-45s-20.185-45-45-45zm0 60v-30c8.262 0 15 6.724 15 15s-6.738 15-15 15z" fill="#ffdf40"/><path d="m238.152 362h30v150h-30z" fill="#ffdf40"/><g fill="#ffbe40"><path d="m352.146 406.873c0-24.814-20.186-45-45-45h-30c0 11.515 0 157.508 0 150h30v-41.475l23.291 41.602 26.836-13.418-28.702-52.383c13.969-7.647 23.575-22.308 23.575-39.326zm-45-15c8.262 0 15 6.724 15 15s-6.738 15-15 15z"/><path d="m367.146 512h60v-30h-30v-30h15v-30h-15v-30h30v-30h-60c0 11.515 0 157.508 0 150z"/><path d="m467.14 362h-30v150h30c24.814 0 45-20.186 45-45v-60c0-24.814-20.186-45-45-45zm15 105c0 8.276-6.738 15-15 15v-90c8.262 0 15 6.724 15 15z"/></g><path d="m.14 512h60v-30h-30v-30h15v-30h-15v-30h30v-30h-60c0 11.515 0 157.508 0 150z" fill="#ffdf40"/><path d="m121.345 353.387-13.711 36.571-13.711-36.571-28.096 10.532 25.785 68.774-25.785 68.775 28.096 10.532 13.711-36.572 13.711 36.572 28.096-10.532-25.785-68.775 25.785-68.774z" fill="#ffdf40"/></g><g><path d="m121.14 15h30v300h-30z" fill="#3d4b66"/></g><g><path d="m361.14 15h30v300h-30z" fill="#2e384d"/></g></g><g><path d="m91.14 0h330v30h-330z" fill="#4d5e80"/></g><g><path d="m91.14 300h330v30h-330z" fill="#4d5e80"/></g><path d="m256.14 362h12.012v150h-12.012z" fill="#ffbe40"/><g fill="#3d4b66"><path d="m256.14 300h165v30h-165z"/><path d="m256.14 0h165v30h-165z"/></g></g></svg>