<svg id="Capa_1" enable-background="new 0 0 512 512" height="256" viewBox="0 0 512 512" width="256" xmlns="http://www.w3.org/2000/svg"><g><g><path d="m345.581 512h-150v-62c0-16.569 13.431-30 30-30h90c16.569 0 30 13.431 30 30z" fill="#4d5e80"/></g><g id="Try_1_"><g><path d="m276.881 84.3c14.099-7.5 23.699-22.2 23.699-39.3 0-19.501-12.599-36.301-30-42.301-4.799-1.8-9.6-2.699-15-2.699h-45v150h30v-60h5.7l24.3 48.3v.3l8.401 16.5 26.699-13.5zm-21.3-24.3h-15v-30h15c8.401 0 15 6.599 15 15 0 8.399-6.6 15-15 15z" fill="#f36a3d"/><path d="m90.581 0v30h30v120h30v-120h30v-30c-29.087 0-93.705 0-90 0z" fill="#f36a3d"/><path d="m425.708 13.418-26.836-13.418-23.291 46.582-23.291-46.582-26.836 13.418 35.127 70.254v66.328h30v-66.328z" fill="#ec4c36"/></g><g><path d="m105.581 420h-84.258l35.595-71.235-56.894-48.765 56.894-48.765-35.595-71.235h84.258v30h-35.743l24.405 48.765-48.106 41.235 48.106 41.235-24.405 48.765h35.743z" fill="#f36a3d"/></g><g><path d="m489.838 420h-84.257v-30h35.742l-24.405-48.765 48.106-41.235-48.106-41.235 24.405-48.765h-35.742v-30h84.257l-35.595 71.235 57.733 48.765-57.733 48.765z" fill="#ec4c36"/></g></g><path d="m305.68 141.599-26.699 13.5-8.401-16.5v-135.9c17.401 6 30 22.8 30 42.301 0 17.1-9.6 31.8-23.699 39.3z" fill="#ec4c36"/><path d="m315.581 420h-45v92h75v-62c0-16.569-13.431-30-30-30z" fill="#3d4b66"/><g><path d="m345.581 450h-150v-38.789l-64.307-64.307c-17.578-17.593-17.578-46.216 0-63.809l34.307-34.307v-23.788c0-24.814 20.186-45 45-45 5.303-.088 5.215-.132 60.996 13.857l69.844 17.49c20.127 5.039 34.16 22.998 34.16 43.652v77.695c0 28.696-10.869 56.865-30 78.267z" fill="#ffd9b3"/></g><path d="m341.42 211.348-69.844-17.49c-.377-.095-.624-.156-.996-.249v256.391h75v-39.038c19.131-21.401 30-49.57 30-78.267v-77.695c.001-20.654-14.033-38.613-34.16-43.652z" fill="#fb9"/></g></svg>