<?xml version="1.0" encoding="UTF-8" standalone="no"?> <svg id="Layer_1" enable-background="new 0 0 512.197 512.197" height="30" viewBox="0 0 512.197 512.197" width="30" xmlns="http://www.w3.org/2000/svg"><g><path d="m155.197 15h87.104v196.713h-87.104z" fill="#ff6326"/><path d="m269.636 15h87.396v196.713h-87.396z" fill="#ff6326"/><path d="m269.636 15h87.396v196.713h-87.396z" fill="#ff3838"/><path d="m212.302 15h87.334v196.713h-87.334z" fill="#ff3838"/><path d="m255.969 15h43.667v196.713h-43.667z" fill="#c30047"/><path d="m320.241 409.246 38.834-26.575-38.822-26.567 8.668-46.251-46.237 8.666-26.575-38.834-26.567 38.822-46.251-8.668 8.666 46.237-38.834 26.575 38.822 26.567-8.668 46.251 46.237-8.666 26.575 38.834 26.567-38.822 46.251 8.668z" fill="#fff16b"/><path d="m359.075 382.671-38.822-26.567 8.668-46.251-46.237 8.665-26.575-38.834-.14.205v205.573l.119.175 26.567-38.822 46.251 8.668-8.665-46.237z" fill="#ffd321"/><path d="m256.088 512.197-33.429-48.849-58.164 10.901 10.903-58.179-48.837-33.421 48.849-33.429-10.901-58.165 58.18 10.904 33.42-48.837 33.429 48.849 58.165-10.901-10.903 58.179 48.837 33.421-48.85 33.43 10.9 58.165-58.179-10.904zm-19.722-81.94 19.722 28.819 19.714-28.808 34.323 6.434-6.43-34.31 28.819-19.722-28.808-19.714 6.433-34.323-34.31 6.431-19.722-28.819-19.713 28.808-34.324-6.434 6.431 34.31-28.819 19.722 28.808 19.714-6.433 34.323z" fill="#ffd321"/><path d="m385.636 382.671-48.837-33.421 10.903-58.179-58.165 10.902-33.429-48.849-.139.204v53.121l.139-.204 19.722 28.819 34.31-6.43-6.433 34.323 28.808 19.714-28.82 19.722 6.43 34.309-34.323-6.433-19.714 28.807-.119-.174v53.121l.119.174 33.421-48.837 58.179 10.905-10.901-58.165z" fill="#ffaf00"/><path d="m212.302 211.713v19.304c0 24.077 19.589 43.666 43.667 43.666s43.667-19.589 43.667-43.666v-19.304z" fill="#fff16b"/><path d="m299.636 231.017v-19.304h-43.667v62.97c24.078 0 43.667-19.589 43.667-43.666z" fill="#ffd321"/><g><path d="m135.792 196.713h240.354v30h-240.354z" fill="#ffd321"/></g><g><path d="m135.792 0h240.354v30h-240.354z" fill="#ffd321"/></g><g fill="#ffaf00"><path d="m255.969 196.713h120.177v30h-120.177z"/><path d="m255.969 0h120.177v30h-120.177z"/></g></g></svg>